<?xml version="1.0" standalone="no"?><!DOCTYPE svg PUBLIC "-//W3C//DTD SVG 1.1//EN" "http://www.w3.org/Graphics/SVG/1.1/DTD/svg11.dtd"><svg t="1640066210728" class="icon" viewBox="0 0 1024 1024" version="1.1" xmlns="http://www.w3.org/2000/svg" p-id="2795" xmlns:xlink="http://www.w3.org/1999/xlink" width="200" height="200"><defs><style type="text/css"></style></defs><path d="M973.193143 273.152c14.299429 20.553143 18.285714 47.433143 10.276571 73.728l-157.147428 517.705143C812.022857 913.152 761.737143 950.857143 712.621714 950.857143H185.188571C126.893714 950.857143 64.612571 904.557714 43.474286 845.129143c-9.142857-25.709714-9.142857-50.870857-1.133715-72.557714 1.133714-11.446857 3.437714-22.857143 3.986286-36.571429 0.585143-9.142857-4.571429-16.566857-3.437714-23.442286 2.304-13.714286 14.299429-23.442286 23.442286-38.838857 17.152-28.562286 36.571429-74.861714 42.861714-104.557714 2.852571-10.861714-2.852571-23.442286 0-33.133714 2.852571-10.861714 13.714286-18.870857 19.419428-29.147429 15.433143-26.294857 35.437714-77.129143 38.290286-104.009143 1.133714-11.995429-4.571429-25.161143-1.133714-34.304 3.986286-13.129143 16.566857-18.870857 25.161143-30.281143 13.714286-18.870857 36.571429-73.142857 40.009143-103.424 1.133714-9.728-4.571429-19.419429-2.852572-29.696 2.304-10.861714 16.018286-22.272 25.161143-35.437714 23.990857-35.437714 28.562286-113.700571 101.156571-93.147429l-0.585142 1.718858C363.547429 75.995429 373.238857 73.142857 382.966857 73.142857h434.870857c26.843429 0 50.870857 11.995429 65.133715 32 14.848 20.553143 18.285714 47.433143 10.276571 74.276572l-156.562286 517.705142C709.842286 785.115429 694.957714 804.571429 622.4 804.571429H125.833143c-7.424 0-16.566857 1.718857-21.723429 8.557714-4.571429 6.838857-5.156571 11.995429-0.585143 24.576C114.971429 870.838857 154.395429 877.714286 185.810286 877.714286h527.433143c21.138286 0 45.714286-11.995429 52.004571-32.585143l171.446857-564.004572c3.437714-10.861714 3.437714-22.272 2.852572-32.585142 13.129143 5.156571 25.161143 13.129143 33.718857 24.576zM365.193143 274.285714c-3.437714 10.276571 2.304 18.285714 12.580571 18.285715h347.428572c9.728 0 20.553143-8.009143 23.990857-18.285715l11.995428-36.571428c3.437714-10.276571-2.304-18.285714-12.580571-18.285715h-347.428571c-9.728 0-20.553143 8.009143-23.990858 18.285715z m-47.396572 146.285715c-3.437714 10.276571 2.304 18.285714 12.580572 18.285714h347.428571c9.728 0 20.553143-8.009143 23.990857-18.285714l11.995429-36.571429c3.437714-10.276571-2.304-18.285714-12.580571-18.285714h-347.428572c-9.728 0-20.553143 8.009143-23.990857 18.285714z" fill="#707070" p-id="2796"></path></svg>