<?xml version="1.0" standalone="no"?><!DOCTYPE svg PUBLIC "-//W3C//DTD SVG 1.1//EN" "http://www.w3.org/Graphics/SVG/1.1/DTD/svg11.dtd"><svg t="1640536175855" class="icon" viewBox="0 0 1024 1024" version="1.1" xmlns="http://www.w3.org/2000/svg" p-id="1677" xmlns:xlink="http://www.w3.org/1999/xlink" width="32" height="32"><defs><style type="text/css"></style></defs><path d="M900.982 284.656A32.352 32.352 0 0 1 907 303.5c0 17.95-14.55 32.5-32.5 32.5-12.273 0-22.956-6.802-28.487-16.843l-0.018 0.01C780.705 204.966 657.711 128 516.74 128c-202.27 0-367.53 158.452-378.428 358h55.168c8.836 0 16 7.163 16 16a16 16 0 0 1-3.96 10.536l-87.239 99.703c-5.819 6.65-15.927 7.324-22.577 1.505a16 16 0 0 1-1.505-1.505l-87.24-99.703c-5.819-6.65-5.145-16.758 1.505-22.577A16 16 0 0 1 19 486H74.23C85.192 251.089 279.117 64 516.739 64c167.557 0 309.836 85.319 384.243 220.656zM126.018 739.047A32.352 32.352 0 0 1 120 720.203c0-17.95 14.55-32.5 32.5-32.5 12.273 0 22.956 6.802 28.487 16.842l0.018-0.01c65.29 114.203 188.284 191.168 329.255 191.168 202.27 0 367.53-158.452 378.428-358H833.52c-8.836 0-16-7.164-16-16a16 16 0 0 1 3.96-10.536l87.239-99.703c5.819-6.65 15.927-7.324 22.577-1.505a16 16 0 0 1 1.505 1.505l87.24 99.703c5.819 6.65 5.145 16.758-1.505 22.577a16 16 0 0 1-10.536 3.959H952.77c-10.963 234.911-204.888 422-442.51 422-167.557 0-309.836-85.32-384.243-220.656z" p-id="1678"></path></svg>