<?xml version="1.0" standalone="no"?><!DOCTYPE svg PUBLIC "-//W3C//DTD SVG 1.1//EN" "http://www.w3.org/Graphics/SVG/1.1/DTD/svg11.dtd"><svg t="1640179239853" class="icon" viewBox="0 0 1024 1024" version="1.1" xmlns="http://www.w3.org/2000/svg" p-id="1910" xmlns:xlink="http://www.w3.org/1999/xlink" width="200" height="200"><defs><style type="text/css"></style></defs><path d="M510.692 482m-286 0a286 286 0 1 0 572 0 286 286 0 1 0-572 0Z" fill="#B5F1FF" p-id="1911"></path><path d="M339.748 984l177.8-528.016L689.72 984" fill="#FFFC9C" p-id="1912"></path><path d="M854.032 801.744l-44.056-40.736c68.848-74.464 106.764-171.36 106.764-272.84 0-221.668-180.344-402.008-402.008-402.008-221.668 0-402.012 180.34-402.012 402.008 0 101.476 37.912 198.368 106.748 272.828l-44.06 40.732c-79.116-85.584-122.688-196.932-122.688-313.56C52.72 233.416 259.98 26.16 514.736 26.16s462.008 207.256 462.008 462.008c0 116.624-43.58 227.988-122.712 313.576z" fill="#6E6E96" p-id="1913"></path><path d="M661.192 993.304l57.052-18.6-172.172-528.016a30 30 0 0 0-28.38-20.7h-0.144a30.004 30.004 0 0 0-28.432 20.424l-177.8 528.016 56.864 19.148 25.552-75.88h242.808l24.652 75.608z m-144.1-441.948l50.928 156.208h-103.532l52.604-156.208z m-103.156 306.344l30.352-90.136h143.3l29.388 90.136h-203.04z" fill="#6E6E96" p-id="1914"></path><path d="M823.852 649.152l-61.524-33.036c22.084-41.124 33.752-87.728 33.752-134.756 0-157.36-128.02-285.384-285.392-285.384-157.36 0-285.388 128.02-285.388 285.384 0 47.024 11.672 93.62 33.752 134.756l-61.528 33.024c-27.512-51.252-42.052-109.272-42.052-167.78 0-195.864 159.348-355.212 355.216-355.212s355.22 159.344 355.22 355.212c0 58.528-14.54 116.544-42.056 167.792z" fill="#46F7FF" opacity=".5" p-id="1915"></path><path d="M783.808 617.152l-52.864-28.388c18.976-35.336 29-75.372 29-115.788 0-135.208-110-245.212-245.22-245.212-135.212 0-245.216 110-245.216 245.212 0 40.408 10.028 80.444 29 115.788l-52.868 28.376c-23.64-44.04-36.132-93.892-36.132-144.164 0-168.292 136.92-305.212 305.216-305.212 168.296 0 305.22 136.916 305.22 305.212 0 50.288-12.492 100.14-36.136 144.176z" fill="#6E6E96" p-id="1916"></path></svg>